<svg viewBox="0 0 99 36" xmlns="http://www.w3.org/2000/svg">
    <path d="m24.024 0-3.8792 3.9331-3.8736-3.9274-3.8669 3.9217-3.8544-3.908-3.8894 3.9434-3.8533-3.908v32.29c0 1.7403 1.3818 3.1412 3.0982 3.1412h24.786c1.7164 0 3.0982-1.4009 3.0982-3.1412v-32.321l-3.8714 3.9252-3.8939-3.9492z" fill="#CFEAC9"/>
    <path d="m18.582 6.8876h9.2326c0.6394 0 1.1541 0.52188 1.1541 1.1701v9.3609c0 0.6482-0.5147 1.1701-1.1541 1.1701h-9.2326c-0.6394 0-1.1541-0.5219-1.1541-1.1701v-9.3609c0-0.64822 0.5147-1.1701 1.1541-1.1701z" fill="#006E22"/>
    <path d="m4.7328 20.929h9.2327c0.6393 0 1.1541 0.5219 1.1541 1.1701v9.3609c0 0.6483-0.5148 1.1702-1.1541 1.1702h-9.2327c-0.63936 0-1.1541-0.5219-1.1541-1.1702v-9.3609c0-0.6482 0.51472-1.1701 1.1541-1.1701z" fill="#006E22"/>
    <path d="m18.582 20.929h9.2326c0.6394 0 1.1541 0.5219 1.1541 1.1701v9.3609c0 0.6483-0.5147 1.1702-1.1541 1.1702h-9.2326c-0.6394 0-1.1541-0.5219-1.1541-1.1702v-9.3609c0-0.6482 0.5147-1.1701 1.1541-1.1701z" fill="#006E22"/>
    <path d="m15.697 12.738c0 0.8451-0.1642 1.682-0.4832 2.4628-0.3189 0.7808-0.7865 1.4902-1.3759 2.0878s-1.2892 1.0717-2.0593 1.3951-1.5955 0.4899-2.429 0.4899c-0.83356 0-1.659-0.1665-2.4291-0.4899s-1.4698-0.7975-2.0593-1.3951c-0.58941-0.5976-1.057-1.307-1.376-2.0878s-0.48316-1.6177-0.48316-2.4628c0-1.7069 0.66875-3.3438 1.8591-4.5507s2.8049-1.885 4.4883-1.885c1.6834 0 3.2979 0.67805 4.4883 1.885s1.8591 2.8438 1.8591 4.5507z" fill="#CD191E"/>
    <path d="m35.534 25.698v-12.456h2.6049v12.456h-2.6049z" fill="#006E22"/>
    <path d="m43.794 25.698h-2.5629v-12.456h7.0415v2.164h-4.4786v3.2118h4.1677v2.1554h-4.1677v4.9243z" fill="#006E22"/>
    <path d="m61.574 25.698h-3.3106l-5.3442-9.4225h-0.0756c0.1064 1.6641 0.1596 2.8512 0.1596 3.5611v5.8614h-2.3275v-12.456h3.2854l5.3358 9.3289h0.0588c-0.084-1.6187-0.126-2.7632-0.126-3.4334v-5.8955h2.3443v12.456z" fill="#006E22"/>
    <path d="m71.741 25.698h-7.0751v-12.456h7.0751v2.164h-4.4702v2.7347h4.1593v2.164h-4.1593v3.2118h4.4702v2.181z" fill="#006E22"/>
    <path d="m86.27 25.698h-2.9662l-1.6637-6.5429c-0.0616-0.2329-0.1681-0.7128-0.3193-1.4398-0.1457-0.7327-0.2297-1.224-0.2521-1.4739-0.0336 0.3067-0.1176 0.8008-0.2521 1.4824-0.1344 0.6758-0.2381 1.1586-0.3109 1.4483l-1.6553 6.5259h-2.9578l-3.1342-12.456h2.5628l1.5713 6.7986c0.2745 1.2552 0.4734 2.3428 0.5966 3.2629 0.0337-0.3237 0.1093-0.8235 0.2269-1.4994 0.1233-0.6816 0.2381-1.2098 0.3445-1.5846l1.7898-6.9775h2.462l1.7898 6.9775c0.0784 0.3124 0.1765 0.7895 0.2941 1.4313s0.2073 1.1927 0.2689 1.6527c0.056-0.443 0.1456-0.9939 0.2689-1.6527 0.1232-0.6646 0.2352-1.2013 0.3361-1.6102l1.5629-6.7986h2.5628l-3.1258 12.456z" fill="#006E22"/>
    <path d="m98.193 22.239c0 1.1246-0.4005 2.0106-1.2015 2.6581-0.7955 0.6475-1.9047 0.9712-3.3275 0.9712-1.3109 0-2.4704-0.2499-3.4788-0.7497v-2.4536c0.8291 0.3749 1.5293 0.639 2.1007 0.7923 0.577 0.1534 1.1036 0.23 1.5797 0.23 0.5714 0 1.0084-0.1108 1.3109-0.3323 0.3081-0.2215 0.4621-0.5508 0.4621-0.9882 0-0.2442-0.0672-0.46-0.2017-0.6475-0.1344-0.1931-0.3333-0.3776-0.5966-0.5537-0.2576-0.1761-0.787-0.4572-1.5881-0.8435-0.7506-0.3578-1.3136-0.7014-1.6889-1.0308-0.3754-0.3294-0.6751-0.7128-0.8991-1.1502-0.2241-0.4373-0.3361-0.9484-0.3361-1.5334 0-1.1019 0.3669-1.968 1.1007-2.5984 0.7395-0.6305 1.759-0.9457 3.0586-0.9457 0.6386 0 1.2464 0.0767 1.8234 0.23 0.5826 0.1534 1.1904 0.3692 1.8234 0.6475l-0.8403 2.0532c-0.6554-0.2726-1.1988-0.4629-1.6301-0.5708-0.4257-0.1079-0.8459-0.1619-1.2604-0.1619-0.493 0-0.8711 0.1164-1.1344 0.3493-0.2633 0.2328-0.3949 0.5367-0.3949 0.9116 0 0.2328 0.0532 0.4373 0.1596 0.6134 0.1065 0.1704 0.2745 0.3379 0.5042 0.5026 0.2353 0.1591 0.7871 0.4487 1.6553 0.869 1.1484 0.5566 1.9355 1.116 2.3612 1.6783 0.4258 0.5566 0.6386 1.241 0.6386 2.0532z" fill="#006E22"/>
</svg>
